<?xml version="1.0" encoding="UTF-8" standalone="no"?>
<svg
   xmlns:dc="http://purl.org/dc/elements/1.1/"
   xmlns:cc="http://creativecommons.org/ns#"
   xmlns:rdf="http://www.w3.org/1999/02/22-rdf-syntax-ns#"
   xmlns:svg="http://www.w3.org/2000/svg"
   xmlns="http://www.w3.org/2000/svg"
   xmlns:sodipodi="http://sodipodi.sourceforge.net/DTD/sodipodi-0.dtd"
   xmlns:inkscape="http://www.inkscape.org/namespaces/inkscape"
   viewBox="0 0 48 48"
   id="svg2"
   version="1.1"
   inkscape:version="0.92.0 r"
   sodipodi:docname="arch-menu.svg">
  <metadata
     id="metadata49">
    <rdf:RDF>
      <cc:Work
         rdf:about="">
        <dc:format>image/svg+xml</dc:format>
        <dc:type
           rdf:resource="http://purl.org/dc/dcmitype/StillImage" />
      </cc:Work>
    </rdf:RDF>
  </metadata>
  <sodipodi:namedview
     pagecolor="#ffffff"
     bordercolor="#666666"
     borderopacity="1"
     objecttolerance="10"
     gridtolerance="10"
     guidetolerance="10"
     inkscape:pageopacity="0"
     inkscape:pageshadow="2"
     inkscape:window-width="1366"
     inkscape:window-height="716"
     id="namedview47"
     showgrid="false"
     inkscape:zoom="9.8333333"
     inkscape:cx="33.713115"
     inkscape:cy="23.140785"
     inkscape:window-x="0"
     inkscape:window-y="26"
     inkscape:window-maximized="1"
     inkscape:current-layer="svg2" />
  <defs
     id="defs4">
    <linearGradient
       id="linearGradient3764"
       x1="1"
       x2="47"
       gradientUnits="userSpaceOnUse"
       gradientTransform="matrix(0,-1,1,0,-1.5e-6,47.999998)">
      <stop
         style="stop-color:#1791d1;stop-opacity:1"
         id="stop7" />
      <stop
         offset="1"
         style="stop-color:#19a0e3;stop-opacity:1"
         id="stop9" />
    </linearGradient>
  </defs>
  <g
     id="g23"
     transform="matrix(1.5124024,0,0,1.5124024,-12.450417,-9.7998762)">
    <g
       id="g25">
      <g
         transform="translate(1,1)"
         id="g27">
        <g
           style="opacity:0.1"
           id="g29">
          <!-- color: #19a0e3 -->
          <g
             id="g31">
            <path
               d="m 24,10 c -1.07,2.617 -1.715,4.332 -2.902,6.875 0.727,0.77 1.621,1.672 3.078,2.688 C 22.61,18.922 21.547,18.274 20.75,17.606 19.227,20.782 16.84,25.305 12,34.001 15.805,31.806 18.754,30.45 21.504,29.935 21.383,29.427 21.316,28.88 21.32,28.306 l 0.004,-0.121 c 0.063,-2.438 1.328,-4.313 2.832,-4.184 1.5,0.125 2.668,2.207 2.609,4.645 -0.012,0.457 -0.063,0.898 -0.156,1.309 2.719,0.531 5.637,1.887 9.391,4.055 -0.738,-1.363 -1.402,-2.598 -2.031,-3.766 -0.992,-0.77 -2.031,-1.77 -4.145,-2.852 1.453,0.379 2.492,0.813 3.305,1.301 C 26.715,16.752 26.195,15.17 23.996,10.009 m 0.004,0"
               style="fill:#000000;fill-opacity:1;fill-rule:evenodd;stroke:none"
               id="path33"
               inkscape:connector-curvature="0" />
          </g>
        </g>
      </g>
    </g>
  </g>
  <g
     id="g35"
     transform="matrix(1.5124024,0,0,1.5124024,-12.450417,-9.7998762)">
    <g
       id="g37">
      <!-- color: #19a0e3 -->
      <g
         id="g39">
        <path
           d="m 24,10 c -1.07,2.617 -1.715,4.332 -2.902,6.875 0.727,0.77 1.621,1.672 3.078,2.688 C 22.61,18.922 21.547,18.274 20.75,17.606 19.227,20.782 16.84,25.305 12,34.001 15.805,31.806 18.754,30.45 21.504,29.935 21.383,29.427 21.316,28.88 21.32,28.306 l 0.004,-0.121 c 0.063,-2.438 1.328,-4.313 2.832,-4.184 1.5,0.125 2.668,2.207 2.609,4.645 -0.012,0.457 -0.063,0.898 -0.156,1.309 2.719,0.531 5.637,1.887 9.391,4.055 -0.738,-1.363 -1.402,-2.598 -2.031,-3.766 -0.992,-0.77 -2.031,-1.77 -4.145,-2.852 1.453,0.379 2.492,0.813 3.305,1.301 C 26.715,16.752 26.195,15.17 23.996,10.009 m 0.004,0"
           style="fill:#d3dae3;fill-opacity:1;fill-rule:evenodd;stroke:none"
           id="path41"
           inkscape:connector-curvature="0" />
      </g>
    </g>
  </g>
</svg>
