<?xml version="1.0" encoding="UTF-8" standalone="no"?>
<svg
   xmlns:dc="http://purl.org/dc/elements/1.1/"
   xmlns:cc="http://creativecommons.org/ns#"
   xmlns:rdf="http://www.w3.org/1999/02/22-rdf-syntax-ns#"
   xmlns:svg="http://www.w3.org/2000/svg"
   xmlns="http://www.w3.org/2000/svg"
   xmlns:sodipodi="http://sodipodi.sourceforge.net/DTD/sodipodi-0.dtd"
   xmlns:inkscape="http://www.inkscape.org/namespaces/inkscape"
   viewBox="0 0 48 48"
   id="svg2"
   version="1.1"
   inkscape:version="0.92.3 (2405546, 2018-03-11)"
   sodipodi:docname="opensuse.svg">
  <metadata
     id="metadata49">
    <rdf:RDF>
      <cc:Work
         rdf:about="">
        <dc:format>image/svg+xml</dc:format>
        <dc:type
           rdf:resource="http://purl.org/dc/dcmitype/StillImage" />
        <dc:title />
      </cc:Work>
    </rdf:RDF>
  </metadata>
  <sodipodi:namedview
     pagecolor="#ffffff"
     bordercolor="#666666"
     borderopacity="1"
     objecttolerance="10"
     gridtolerance="10"
     guidetolerance="10"
     inkscape:pageopacity="0"
     inkscape:pageshadow="2"
     inkscape:window-width="1920"
     inkscape:window-height="1033"
     id="namedview47"
     showgrid="false"
     inkscape:zoom="13.906433"
     inkscape:cx="-20.903337"
     inkscape:cy="24.717915"
     inkscape:window-x="0"
     inkscape:window-y="24"
     inkscape:window-maximized="1"
     inkscape:current-layer="svg2" />
  <defs
     id="defs4">
    <linearGradient
       id="linearGradient3764"
       x1="1"
       x2="47"
       gradientUnits="userSpaceOnUse"
       gradientTransform="matrix(0,-1,1,0,-1.5e-6,47.999998)">
      <stop
         style="stop-color:#1791d1;stop-opacity:1"
         id="stop7" />
      <stop
         offset="1"
         style="stop-color:#19a0e3;stop-opacity:1"
         id="stop9" />
    </linearGradient>
  </defs>
  <g
     id="g35"
     transform="matrix(1.7605381,0,0,1.7605381,-18.783975,-15.332081)" />
  <path
     style="font-size:20.48839951px;font-family:TrebuchetMS-Bold;fill:#eff0f1;fill-opacity:1;fill-rule:evenodd;stroke:none;stroke-width:0.32949239;stroke-miterlimit:4"
     d="m 24.017662,1.0412643 c -12.708746,0 -23.0129848,10.3030647 -23.0129848,23.0129847 0,12.709917 10.3042398,23.012983 23.0129848,23.012983 12.708745,0 23.012979,-10.303066 23.012983,-23.012983 0,-12.70992 -10.304238,-23.0129847 -23.012983,-23.0129847 z m 0.110192,3.187065 c 10.950192,0 19.834394,8.8769017 19.834394,19.8259197 0,10.950194 -8.885376,19.825918 -19.834394,19.825918 -5.912682,0 -11.218294,-2.591369 -14.8503688,-6.696227 1.4934208,-1.159072 3.9920078,-0.876299 7.0691818,-0.525528 1.474651,0.167761 3.155697,0.359671 4.890789,0.398383 4.847458,0.02817 10.063137,-0.856549 13.282264,-2.263155 2.081169,-0.912713 3.413657,-1.513777 4.246594,-2.271632 0.300329,-0.246362 0.458044,-0.657927 0.618767,-1.084956 l 0.110192,-0.288194 c 0.134914,-0.344906 0.328525,-1.08708 0.415336,-1.491815 0.03872,-0.177149 0.05771,-0.367649 -0.0678,-0.466197 l -0.449239,0.08476 c -1.412475,0.847014 -4.94144,2.460221 -8.24738,2.525918 -4.096641,0.08564 -12.353358,-4.124067 -13.214453,-4.568691 l -0.08476,-0.101719 c -0.206485,-0.492716 -1.442121,-3.426079 -1.703734,-4.043157 5.943184,3.913633 10.870568,6.079818 14.64694,6.416511 4.198708,0.373063 7.473875,-1.91929 8.874617,-2.898872 0.273348,-0.186531 0.482268,-0.332803 0.567911,-0.364477 l 0.09323,-0.152575 C 40.093657,24.612718 37.890754,17.471159 36.231918,15.756011 35.772042,15.285578 35.406421,14.82775 34.663814,14.391337 28.659628,10.891827 14.403508,8.7842013 13.735985,8.6868293 l -0.110192,0.0339 -0.04238,0.09324 c 0,0 -0.05348,2.9602987 -0.05934,3.2887797 -0.4892,-0.161892 -2.006105,-0.65852 -4.1787808,-1.254481 C 12.180157,7.3405433 16.524612,4.2283273 24.127851,4.2283273 Z m 5.238313,10.4935817 c 0.101168,-0.0015 0.2033,-0.0035 0.305145,0 3.363422,0.120829 6.005949,2.953721 5.890984,6.314796 -0.05984,1.625987 -0.745351,3.128317 -1.932581,4.238119 -1.190752,1.115668 -2.738369,1.697182 -4.373738,1.644392 -3.35756,-0.125527 -6.00009,-2.958413 -5.890986,-6.314798 0.05748,-1.628334 0.746789,-3.140315 1.941057,-4.246595 1.115227,-1.045939 2.542575,-1.61314 4.060119,-1.635914 z m -0.161051,1.796962 c -0.979557,0.05956 -1.903945,0.457293 -2.627632,1.135816 -0.824722,0.774278 -1.311356,1.822598 -1.347723,2.958207 -0.07743,2.346302 1.758544,4.320829 4.102501,4.407644 1.139127,0.0352 2.219681,-0.363885 3.051445,-1.135817 0.829418,-0.777799 1.312529,-1.835764 1.347722,-2.966683 0.0786,-2.349821 -1.765845,-4.317046 -4.110973,-4.399167 -0.141953,-0.0052 -0.275401,-0.0086 -0.41534,0 z m 1.118865,2.127535 c 1.04176,0 1.881727,0.566108 1.881725,1.26296 0,0.693333 -0.839965,1.262958 -1.881725,1.262958 -1.04528,0 -1.890199,-0.5708 -1.890199,-1.262958 0,-0.696852 0.844919,-1.262959 1.890199,-1.26296 z"
     id="path2445"
     class="ColorScheme-Text"
     inkscape:connector-curvature="0" />
</svg>
